inDegrees=yes
name=ik_S46_A01_T01
DataType=double
version=3
OpenSimVersion=4.3-2021-08-27-4bc7ad9
endheader
time	pelvis_tilt	pelvis_list	pelvis_rotation	pelvis_tx	pelvis_ty	pelvis_tz	hip_flexion_r	hip_adduction_r	hip_rotation_r	knee_angle_r	knee_angle_r_beta	ankle_angle_r	subtalar_angle_r	mtp_angle_r	hip_flexion_l	hip_adduction_l	hip_rotation_l	knee_angle_l	knee_angle_l_beta	ankle_angle_l	subtalar_angle_l	mtp_angle_l	lumbar_extension	lumbar_bending	lumbar_rotation	arm_flex_r	arm_add_r	arm_rot_r	elbow_flex_r	pro_sup_r	wrist_flex_r	wrist_dev_r	arm_flex_l	arm_add_l	arm_rot_l	elbow_flex_l	pro_sup_l	wrist_flex_l	wrist_dev_l
7.799999999999922	-2.607630779107987	7.815092272545743	87.88725298289536	0	0.9399999999999999	0	22.17006352263232	-10.34414926515519	-16.74315982134378	39.00973352481702	0.68084829033367	0	0	0	-6.120355486744503	2.06659139234708	-3.6620552131377	-9.313536376924803	-0.1625518747816014	0	0	0	0	0	0	30.7957825312511	-30.7957825312511	4.307854593216983	75.21426771536947	85.69214564840728	0	0	30.7957825312511	-30.7957825312511	4.307854593216983	75.21426771536947	85.69214564827865	0	0
7.819999999999921	-2.347777970352777	7.731981621015575	88.10270484001181	0	0.9399999999999999	0	22.70635169042072	-9.314771771190344	-16.36331911373615	33.51928830045478	0.5850219437681502	0	0	0	-6.84592070402235	2.248278618639686	-1.795732277708897	-7.944487782174727	-0.1386574691834111	0	0	0	0	0	0	30.80441201032226	-30.80441201032227	4.30868684168396	75.22615611166238	85.69131339998366	0	0	30.80441201032226	-30.80441201032227	4.30868684168396	75.22615611166238	85.69131339985512	0	0
7.839999999999921	-2.159715251646261	7.532503275857507	88.21520707987129	0	0.9399999999999999	0	22.97308657025943	-8.447378534270321	-16.41640813511871	27.24678914046109	0.4755461810976818	0	0	0	-7.503435127148705	1.618173831151541	-0.003374214849906367	-7.672359207387528	-0.1339079295646148	0	0	0	0	0	0	30.81136077746231	-30.81136077746232	4.309358653031427	75.23575334873873	85.69064158867107	0	0	30.81136077746231	-30.81136077746232	4.309358653031427	75.23575334873873	85.69064158854263	0	0
7.85999999999992	-2.163184046736949	7.055182491310002	88.16852939934554	0	0.9399999999999999	0	23.25361130091185	-7.966200804074386	-16.58539589080053	21.10604117361865	0.3683699105411336	0	0	0	-8.001649902867673	1.429509713120043	0.630863101859518	-7.319765231429169	-0.1277540037614437	0	0	0	0	0	0	30.81826333695883	-30.81826333695883	4.31002423358038	75.24526062344525	85.68997600815675	0	0	30.81826333695883	-30.81826333695883	4.31002423358038	75.24526062344525	85.68997600802841	0	0
7.87999999999992	-2.421676791334853	6.634675275837563	88.15605581555236	0	0.9399999999999999	0	23.30189939331251	-7.753666369165014	-16.76541811250304	14.75675575191946	0.2575539747836061	0	0	0	-8.728552296156296	1.51111790760998	0.2180067921035064	-7.374672635238213	-0.1287123187416336	0	0	0	0	0	0	30.8287868718608	-30.82878687186081	4.3110305236517	75.25963026514215	85.68896971813777	0	0	30.8287868718608	-30.82878687186081	4.3110305236517	75.25963026514215	85.68896971800962	0	0
7.89999999999992	-2.619414168891751	6.428899785766605	88.18902708428865	0	0.9399999999999999	0	22.93521696624628	-7.526900651459996	-16.9500881576043	11.43230597356682	0.1995313803341568	0	0	0	-8.867078853778972	1.88770661322597	-0.8290284478798574	-6.847373738541592	-0.1195092168521441	0	0	0	0	0	0	30.8355800991019	-30.83558009910191	4.311686990733468	75.26900764897793	85.68831325109014	0	0	30.8355800991019	-30.83558009910191	4.311686990733468	75.26900764897793	85.68831325096211	0	0
7.919999999999919	-3.10370114657582	6.103370975599781	88.26625774506215	0	0.9399999999999999	0	22.92813906595303	-7.669508544807353	-16.89198308880097	1.995358009748619	0.03482556702615452	0	0	0	-11.14397837957418	2.240652700443518	-0.9594612716016886	-8.35920671574835	-0.1458956800446304	0	0	0	0	0	0	30.85218722141032	-30.85218722141033	4.313277089514613	75.29171385287343	85.68672315239155	0	0	30.85218722141032	-30.85218722141033	4.313277089514613	75.29171385287343	85.68672315226387	0	0
7.939999999999919	-3.114706597558849	6.101634179685691	88.26961725033881	0	0.9399999999999999	0	22.3873306882123	-7.898381714728214	-17.94742074582434	-1.14248823364944	-0.019940181342477	0	0	0	-12.38732852066779	2.039600083733589	-1.268796874005679	-8.712187191210383	-0.152056351536698	0	0	0	0	0	0	30.85675820834116	-30.85675820834117	4.313718308389277	75.29801597926682	85.68628193353976	0	0	30.85675820834116	-30.85675820834117	4.313718308389277	75.29801597926682	85.68628193341219	0	0
7.959999999999918	-3.63379507086376	5.806882399555916	88.39854776304963	0	0.9399999999999999	0	22.49728404970763	-8.490560255766916	-18.54688883335103	-2.128980158520684	-0.03715771347581674	0	0	0	-13.20570153446771	2.578304263441042	-0.7482707147537027	-8.236062865370751	-0.1437464144019581	0	0	0	0	0	0	30.86000152991553	-30.86000152991554	4.31403211492512	75.30249854392616	85.6859681270202	0	0	30.86000152991553	-30.86000152991554	4.31403211492512	75.30249854392616	85.68596812689273	0	0
7.979999999999918	-4.239165281097977	5.97251536606935	88.29370126827217	0	0.9399999999999999	0	22.68581096452943	-8.482475856713204	-16.31834612589704	-1.063203672937662	-0.01855640471205914	0	0	0	-14.35450828215643	3.314835935444716	0.06012716080605109	-6.578296981176716	-0.1148129414955371	0	0	0	0	0	0	30.98588222178312	-30.98588222178313	4.32492433200665	75.45748449011938	85.67507591049515	0	0	30.98588222178312	-30.98588222178313	4.32492433200665	75.45748449011938	85.67507591036971	0	0
7.999999999999917	-4.256127375279758	6.55354450162489	87.95530839271076	0	0.9399999999999999	0	22.32344718323785	-7.870755593087725	-14.77345090732665	-0.1685162323996728	-0.002941163098430235	0	0	0	-15.67709644687865	3.330784677587121	0.2253608848693751	-5.410552285255282	-0.0944319517290081	0	0	0	0	0	0	30.99195823885017	-30.99195823885018	4.325506653368526	75.46579822722313	85.67449358916348	0	0	30.99195823885017	-30.99195823885018	4.325506653368526	75.46579822722313	85.67449358903821	0	0
8.019999999999918	-3.815880147244971	7.23929199587184	87.60034566790797	0	0.9399999999999999	0	21.59565890477951	-7.124969446957	-13.61038400868516	1.618127971204938	0.02824166081614216	0	0	0	-17.07717619592269	2.829124066310481	-0.1600048105320919	-3.904676105739507	-0.06814945426910465	0	0	0	0	0	0	30.99849331099042	-30.99849331099042	4.326133246731299	75.47474401349638	85.67386699583324	0	0	30.99849331099042	-30.99849331099042	4.326133246731299	75.47474401349638	85.67386699570808	0	0
8.039999999999917	-3.8149850048027	7.231779893121429	87.60628560694795	0	0.9399999999999999	0	21.50923903139462	-7.127712296224823	-13.93061680609407	2.23181692919272	0.03895255371616211	0	0	0	-17.66904390275439	2.549819936036582	-1.181335382817132	-2.204141561963282	-0.03846952743630987	0	0	0	0	0	0	31.00346870821605	-31.00346870821605	4.326609936449898	75.48154941253543	85.67339030613937	0	0	31.00346870821605	-31.00346870821605	4.326609936449898	75.48154941253543	85.67339030601433	0	0
8.059999999999917	-3.121690307111835	6.851759480650098	89.36918907333745	0	0.9399999999999999	0	20.59701064649978	-6.82284847919681	-15.65472130186278	1.252995022774119	0.02186888865850972	0	0	0	-17.60566535985259	0.6905633740612442	-2.313107872830491	0.0004649607683134223	8.115096299671741e-06	0	0	0	0	0	0	31.05530080413953	-31.05530080413954	4.330902223929571	75.54254411890501	85.66909801887758	0	0	31.05530080413953	-31.05530080413954	4.330902223929571	75.54254411890501	85.66909801875336	0	0
